Montserrat-Bold.ufo
<glyph name="greater" format="2">
  <advance width="620"/>
  <unicode hex="003E"/>
  <outline>
    <contour>
      <point x="55" y="76" type="line"/>
      <point x="565" y="261" type="line"/>
      <point x="565" y="439" type="line"/>
      <point x="55" y="624" type="line"/>
      <point x="55" y="454" type="line"/>
      <point x="501" y="301" type="line"/>
      <point x="501" y="399" type="line"/>
      <point x="55" y="246" type="line"/>
    </contour>
  </outline>
</glyph>
<glyph name="b" format="2">
  <advance width="700"/>
  <unicode hex="0062"/>
  <outline>
    <contour>
      <point x="415" y="-10" type="curve" smooth="yes"/>
      <point x="558" y="-10"/>
      <point x="679" y="98"/>
      <point x="679" y="274" type="curve" smooth="yes"/>
      <point x="679" y="450"/>
      <point x="558" y="557"/>
      <point x="415" y="557" type="curve" smooth="yes"/>
      <point x="272" y="557"/>
      <point x="207" y="468"/>
      <point x="207" y="274" type="curve" smooth="yes"/>
      <point x="207" y="77"/>
      <point x="264" y="-10"/>
    </contour>
    <contour>
      <point x="50" y="0" type="line"/>
      <point x="265" y="0" type="line"/>
      <point x="265" y="74" type="line"/>
      <point x="266" y="274" type="line"/>
      <point x="276" y="474" type="line"/>
      <point x="276" y="742" type="line"/>
      <point x="50" y="742" type="line"/>
    </contour>
    <contour>
      <point x="361" y="166" type="curve" smooth="yes"/>
      <point x="311" y="166"/>
      <point x="272" y="203"/>
      <point x="272" y="274" type="curve" smooth="yes"/>
      <point x="272" y="345"/>
      <point x="311" y="381"/>
      <point x="361" y="381" type="curve" smooth="yes"/>
      <point x="411" y="381"/>
      <point x="450" y="345"/>
      <point x="450" y="274" type="curve" smooth="yes"/>
      <point x="450" y="203"/>
      <point x="411" y="166"/>
    </contour>
  </outline>
</glyph>
<glyph name="m" format="2">
  <advance width="1040"/>
  <unicode hex="006D"/>
  <anchor x="519" y="0" name="bottom"/>
  <outline>
    <contour>
      <point x="774" y="557" type="curve" smooth="yes"/>
      <point x="673" y="557"/>
      <point x="593" y="503"/>
      <point x="553" y="412" type="curve"/>
      <point x="622" y="401" type="line"/>
      <point x="596" y="509"/>
      <point x="516" y="557"/>
      <point x="420" y="557" type="curve" smooth="yes"/>
      <point x="335" y="557"/>
      <point x="262" y="517"/>
      <point x="221" y="434" type="curve"/>
      <point x="265" y="390" type="line"/>
      <point x="265" y="547" type="line"/>
      <point x="50" y="547" type="line"/>
      <point x="50" y="0" type="line"/>
      <point x="276" y="0" type="line"/>
      <point x="276" y="267" type="line" smooth="yes"/>
      <point x="276" y="340"/>
      <point x="307" y="367"/>
      <point x="347" y="367" type="curve" smooth="yes"/>
      <point x="385" y="367"/>
      <point x="408" y="341"/>
      <point x="408" y="273" type="curve" smooth="yes"/>
      <point x="408" y="0" type="line"/>
      <point x="634" y="0" type="line"/>
      <point x="634" y="267" type="line" smooth="yes"/>
      <point x="634" y="340"/>
      <point x="665" y="367"/>
      <point x="705" y="367" type="curve" smooth="yes"/>
      <point x="741" y="367"/>
      <point x="766" y="341"/>
      <point x="766" y="273" type="curve" smooth="yes"/>
      <point x="766" y="0" type="line"/>
      <point x="992" y="0" type="line"/>
      <point x="992" y="312" type="line" smooth="yes"/>
      <point x="992" y="484"/>
      <point x="898" y="557"/>
    </contour>
  </outline>
</glyph>
<glyph name="ordmasculine" format="2">
  <advance width="438"/>
  <unicode hex="00BA"/>
  <outline>
    <contour>
      <point x="219" y="414" type="curve" smooth="yes"/>
      <point x="338" y="414"/>
      <point x="422" y="484"/>
      <point x="422" y="583" type="curve" smooth="yes"/>
      <point x="422" y="682"/>
      <point x="338" y="752"/>
      <point x="219" y="752" type="curve" smooth="yes"/>
      <point x="101" y="752"/>
      <point x="16" y="682"/>
      <point x="16" y="583" type="curve" smooth="yes"/>
      <point x="16" y="484"/>
      <point x="101" y="414"/>
    </contour>
    <contour>
      <point x="219" y="524" type="curve" smooth="yes"/>
      <point x="190" y="524"/>
      <point x="167" y="544"/>
      <point x="167" y="583" type="curve" smooth="yes"/>
      <point x="167" y="623"/>
      <point x="190" y="642"/>
      <point x="219" y="642" type="curve" smooth="yes"/>
      <point x="248" y="642"/>
      <point x="271" y="623"/>
      <point x="271" y="583" type="curve" smooth="yes"/>
      <point x="271" y="544"/>
      <point x="248" y="524"/>
    </contour>
  </outline>
</glyph>
<glyph name="gstroke" format="2">
  <advance width="725"/>
  <unicode hex="01E5"/>
  <outline>
    <contour>
      <point x="324" y="-204" type="curve" smooth="yes"/>
      <point x="545" y="-204"/>
      <point x="661" y="-97"/>
      <point x="661" y="109" type="curve" smooth="yes"/>
      <point x="661" y="547" type="line"/>
      <point x="446" y="547" type="line"/>
      <point x="446" y="464" type="line"/>
      <point x="445" y="294" type="line"/>
      <point x="435" y="114" type="line"/>
      <point x="435" y="68" type="line" smooth="yes"/>
      <point x="435" y="-8"/>
      <point x="393" y="-46"/>
      <point x="307" y="-46" type="curve" smooth="yes"/>
      <point x="242" y="-46"/>
      <point x="170" y="-24"/>
      <point x="130" y="8" type="curve"/>
      <point x="54" y="-136" type="line"/>
      <point x="119" y="-179"/>
      <point x="218" y="-204"/>
    </contour>
    <contour>
      <point x="262" y="-11" type="line"/>
      <point x="724" y="-10" type="line"/>
      <point x="724" y="70" type="line"/>
      <point x="262" y="69" type="line"/>
    </contour>
    <contour>
      <point x="274" y="92" type="curve" smooth="yes"/>
      <point x="410" y="92"/>
      <point x="490" y="167"/>
      <point x="490" y="322" type="curve" smooth="yes"/>
      <point x="490" y="479"/>
      <point x="409" y="556"/>
      <point x="273" y="556" type="curve" smooth="yes"/>
      <point x="119" y="556"/>
      <point x="21" y="458"/>
      <point x="21" y="324" type="curve" smooth="yes"/>
      <point x="21" y="190"/>
      <point x="120" y="92"/>
    </contour>
    <contour>
      <point x="344" y="243" type="curve" smooth="yes"/>
      <point x="285" y="243"/>
      <point x="250" y="273"/>
      <point x="250" y="324" type="curve" smooth="yes"/>
      <point x="250" y="375"/>
      <point x="285" y="405"/>
      <point x="344" y="405" type="curve" smooth="yes"/>
      <point x="402" y="405"/>
      <point x="437" y="375"/>
      <point x="437" y="324" type="curve" smooth="yes"/>
      <point x="437" y="273"/>
      <point x="402" y="243"/>
    </contour>
  </outline>
</glyph>
<glyph name="strokelongcomb" format="2">
  <unicode hex="0336"/>
  <anchor x="500" y="433" name="_center"/>
  <outline>
    <contour>
      <point x="69" y="364" type="line"/>
      <point x="931" y="364" type="line"/>
      <point x="931" y="500" type="line"/>
      <point x="69" y="500" type="line"/>
    </contour>
  </outline>
</glyph>
<glyph name="Ve-cy" format="2">
  <advance width="743"/>
  <unicode hex="0412"/>
  <anchor x="385" y="0" name="bottom"/>
  <anchor x="385" y="700" name="top"/>
  <outline>
    <contour>
      <point x="62" y="0" type="line"/>
      <point x="436" y="0" type="line" smooth="yes"/>
      <point x="619" y="0"/>
      <point x="721" y="79"/>
      <point x="721" y="203" type="curve" smooth="yes"/>
      <point x="721" y="323"/>
      <point x="624" y="387"/>
      <point x="466" y="387" type="curve"/>
      <point x="446" y="333" type="line"/>
      <point x="595" y="333"/>
      <point x="690" y="404"/>
      <point x="690" y="517" type="curve" smooth="yes"/>
      <point x="690" y="633"/>
      <point x="590" y="700"/>
      <point x="417" y="700" type="curve" smooth="yes"/>
      <point x="62" y="700" type="line"/>
    </contour>
    <contour>
      <point x="294" y="165" type="line"/>
      <point x="294" y="275" type="line"/>
      <point x="425" y="275" type="line" smooth="yes"/>
      <point x="464" y="275"/>
      <point x="483" y="257"/>
      <point x="483" y="221" type="curve" smooth="yes"/>
      <point x="483" y="185"/>
      <point x="464" y="165"/>
      <point x="425" y="165" type="curve" smooth="yes"/>
    </contour>
    <contour>
      <point x="294" y="431" type="line"/>
      <point x="294" y="535" type="line"/>
      <point x="394" y="535" type="line" smooth="yes"/>
      <point x="434" y="535"/>
      <point x="452" y="516"/>
      <point x="452" y="482" type="curve" smooth="yes"/>
      <point x="452" y="448"/>
      <point x="434" y="431"/>
      <point x="394" y="431" type="curve" smooth="yes"/>
    </contour>
  </outline>
</glyph>
<glyph name="Zhe-cy" format="2">
  <advance width="1140"/>
  <unicode hex="0416"/>
  <guideline x="441" y="174" angle="0"/>
  <guideline x="441" y="239" angle="0"/>
  <anchor x="863" y="0" name="bottomleft"/>
  <anchor x="1126" y="0" name="bottomright"/>
  <anchor x="572" y="700" name="top"/>
  <outline>
    <contour>
      <point x="863" y="0" type="line"/>
      <point x="1134" y="0" type="line"/>
      <point x="911" y="438" type="line"/>
      <point x="713" y="328" type="line"/>
    </contour>
    <contour>
      <point x="618" y="253" type="line"/>
      <point x="851" y="253" type="line"/>
      <point x="851" y="439" type="line"/>
      <point x="618" y="439" type="line"/>
    </contour>
    <contour>
      <point x="924" y="325" type="line"/>
      <point x="1124" y="700" type="line"/>
      <point x="878" y="700" type="line"/>
      <point x="706" y="347" type="line"/>
    </contour>
    <contour>
      <point x="277" y="0" type="line"/>
      <point x="428" y="328" type="line"/>
      <point x="230" y="438" type="line"/>
      <point x="6" y="0" type="line"/>
    </contour>
    <contour>
      <point x="686" y="0" type="line"/>
      <point x="686" y="700" type="line"/>
      <point x="456" y="700" type="line"/>
      <point x="456" y="0" type="line"/>
    </contour>
    <contour>
      <point x="524" y="253" type="line"/>
      <point x="524" y="439" type="line"/>
      <point x="289" y="439" type="line"/>
      <point x="289" y="253" type="line"/>
    </contour>
    <contour>
      <point x="217" y="325" type="line"/>
      <point x="431" y="347" type="line"/>
      <point x="262" y="700" type="line"/>
      <point x="16" y="700" type="line"/>
    </contour>
  </outline>
</glyph>
<glyph name="Ef-cy" format="2">
  <advance width="980"/>
  <unicode hex="0424"/>
  <outline>
    <contour>
      <point x="464" y="40" type="curve" smooth="yes"/>
      <point x="471" y="40"/>
      <point x="530" y="40"/>
      <point x="536" y="40" type="curve" smooth="yes"/>
      <point x="814" y="40"/>
      <point x="958" y="156"/>
      <point x="958" y="353" type="curve" smooth="yes"/>
      <point x="958" y="552"/>
      <point x="809" y="665"/>
      <point x="524" y="665" type="curve" smooth="yes"/>
      <point x="521" y="665"/>
      <point x="469" y="665"/>
      <point x="465" y="665" type="curve" smooth="yes"/>
      <point x="174" y="665"/>
      <point x="22" y="555"/>
      <point x="22" y="353" type="curve" smooth="yes"/>
      <point x="22" y="151"/>
      <point x="173" y="40"/>
    </contour>
    <contour>
      <point x="485" y="220" type="curve" smooth="yes"/>
      <point x="329" y="220"/>
      <point x="250" y="254"/>
      <point x="250" y="353" type="curve" smooth="yes"/>
      <point x="250" y="451"/>
      <point x="313" y="485"/>
      <point x="485" y="485" type="curve" smooth="yes"/>
      <point x="491" y="485"/>
      <point x="505" y="485"/>
      <point x="510" y="485" type="curve" smooth="yes"/>
      <point x="664" y="485"/>
      <point x="730" y="449"/>
      <point x="730" y="354" type="curve" smooth="yes"/>
      <point x="730" y="258"/>
      <point x="668" y="220"/>
      <point x="507" y="220" type="curve" smooth="yes"/>
      <point x="503" y="220"/>
      <point x="489" y="220"/>
    </contour>
    <contour>
      <point x="382" y="-36" type="line"/>
      <point x="598" y="-36" type="line"/>
      <point x="598" y="735" type="line"/>
      <point x="382" y="735" type="line"/>
    </contour>
  </outline>
</glyph>
<glyph name="Sha-cy" format="2">
  <advance width="1101"/>
  <unicode hex="0428"/>
  <anchor x="802" y="0" name="bottomleft"/>
  <outline>
    <contour>
      <point x="486" y="183" type="line"/>
      <point x="243" y="183" type="line"/>
      <point x="294" y="132" type="line"/>
      <point x="294" y="700" type="line"/>
      <point x="62" y="700" type="line"/>
      <point x="62" y="0" type="line"/>
      <point x="1039" y="0" type="line"/>
      <point x="1039" y="700" type="line"/>
      <point x="807" y="700" type="line"/>
      <point x="807" y="132" type="line"/>
      <point x="859" y="183" type="line"/>
      <point x="615" y="183" type="line"/>
      <point x="667" y="132" type="line"/>
      <point x="667" y="700" type="line"/>
      <point x="435" y="700" type="line"/>
      <point x="435" y="132" type="line"/>
    </contour>
  </outline>
</glyph>
<glyph name="ka-cy" format="2">
  <advance width="694"/>
  <unicode hex="043A"/>
  <anchor x="431" y="0" name="bottomleft"/>
  <anchor x="670" y="0" name="bottomright"/>
  <anchor x="355" y="547" name="top"/>
  <outline>
    <contour>
      <point x="431" y="0" type="line"/>
      <point x="697" y="0" type="line"/>
      <point x="463" y="357" type="line"/>
      <point x="281" y="251" type="line"/>
    </contour>
    <contour>
      <point x="53" y="0" type="line"/>
      <point x="279" y="0" type="line"/>
      <point x="279" y="547" type="line"/>
      <point x="53" y="547" type="line"/>
    </contour>
    <contour>
      <point x="213" y="182" type="line"/>
      <point x="417" y="182" type="line"/>
      <point x="417" y="355" type="line"/>
      <point x="213" y="355" type="line"/>
    </contour>
    <contour>
      <point x="486" y="249" type="line"/>
      <point x="686" y="547" type="line"/>
      <point x="448" y="547" type="line"/>
      <point x="274" y="269" type="line"/>
    </contour>
  </outline>
</glyph>
<glyph name="softsign-cy" format="2">
  <advance width="639"/>
  <unicode hex="044C"/>
  <guideline x="585" y="280" angle="0"/>
  <anchor x="53" y="0" name="#entry"/>
  <anchor x="175" y="452" name="center"/>
  <outline>
    <contour>
      <point x="399" y="382" type="curve" smooth="yes"/>
      <point x="278" y="382" type="line"/>
      <point x="278" y="547" type="line"/>
      <point x="53" y="547" type="line"/>
      <point x="53" y="0" type="line"/>
      <point x="371" y="0" type="line" smooth="yes"/>
      <point x="530" y="0"/>
      <point x="627" y="75"/>
      <point x="627" y="198" type="curve" smooth="yes"/>
      <point x="627" y="315"/>
      <point x="546" y="382"/>
    </contour>
    <contour>
      <point x="348" y="152" type="curve" smooth="yes"/>
      <point x="278" y="152" type="line"/>
      <point x="278" y="250" type="line"/>
      <point x="348" y="250" type="line" smooth="yes"/>
      <point x="378" y="250"/>
      <point x="397" y="236"/>
      <point x="397" y="202" type="curve" smooth="yes"/>
      <point x="397" y="167"/>
      <point x="378" y="152"/>
    </contour>
  </outline>
</glyph>
<glyph name="ereversed-cy" format="2">
  <advance width="610"/>
  <unicode hex="044D"/>
  <guideline x="-21" y="537" angle="90"/>
  <anchor x="295" y="547" name="top"/>
  <outline>
    <contour>
      <point x="193" y="201" type="line"/>
      <point x="455" y="201" type="line"/>
      <point x="455" y="348" type="line"/>
      <point x="193" y="348" type="line"/>
    </contour>
    <contour>
      <point x="272" y="561" type="curve" smooth="yes"/>
      <point x="155" y="561"/>
      <point x="63" y="520"/>
      <point x="4" y="447" type="curve"/>
      <point x="133" y="332" type="line"/>
      <point x="168" y="372"/>
      <point x="209" y="396"/>
      <point x="262" y="396" type="curve" smooth="yes"/>
      <point x="339" y="396"/>
      <point x="385" y="350"/>
      <point x="385" y="274" type="curve" smooth="yes"/>
      <point x="385" y="198"/>
      <point x="339" y="152"/>
      <point x="262" y="152" type="curve" smooth="yes"/>
      <point x="209" y="152"/>
      <point x="168" y="176"/>
      <point x="133" y="216" type="curve"/>
      <point x="4" y="100" type="line"/>
      <point x="63" y="27"/>
      <point x="155" y="-14"/>
      <point x="272" y="-14" type="curve" smooth="yes"/>
      <point x="460" y="-14"/>
      <point x="592" y="104"/>
      <point x="592" y="274" type="curve" smooth="yes"/>
      <point x="592" y="443"/>
      <point x="460" y="561"/>
    </contour>
  </outline>
</glyph>
<glyph name="ertick-cy" format="2">
  <advance width="706"/>
  <unicode hex="048F"/>
  <outline>
    <contour>
      <point x="420" y="-10" type="curve" smooth="yes"/>
      <point x="567" y="-10"/>
      <point x="686" y="97"/>
      <point x="686" y="273" type="curve" smooth="yes"/>
      <point x="686" y="449"/>
      <point x="567" y="557"/>
      <point x="420" y="557" type="curve" smooth="yes"/>
      <point x="266" y="557"/>
      <point x="210" y="470"/>
      <point x="210" y="273" type="curve" smooth="yes"/>
      <point x="210" y="79"/>
      <point x="274" y="-10"/>
    </contour>
    <contour>
      <point x="53" y="-194" type="line"/>
      <point x="279" y="-194" type="line"/>
      <point x="279" y="73" type="line"/>
      <point x="269" y="273" type="line"/>
      <point x="268" y="473" type="line"/>
      <point x="268" y="547" type="line"/>
      <point x="53" y="547" type="line"/>
    </contour>
    <contour>
      <point x="369" y="166" type="curve" smooth="yes"/>
      <point x="314" y="166"/>
      <point x="275" y="202"/>
      <point x="275" y="273" type="curve" smooth="yes"/>
      <point x="275" y="344"/>
      <point x="314" y="381"/>
      <point x="369" y="381" type="curve" smooth="yes"/>
      <point x="424" y="381"/>
      <point x="463" y="344"/>
      <point x="463" y="273" type="curve" smooth="yes"/>
      <point x="463" y="202"/>
      <point x="424" y="166"/>
    </contour>
    <contour>
      <point x="635" y="-12" type="line"/>
      <point x="412" y="281" type="line"/>
      <point x="342" y="227" type="line"/>
      <point x="570" y="-62" type="line"/>
    </contour>
  </outline>
</glyph>
<glyph name="tedescender-cy" format="2">
  <advance width="583"/>
  <unicode hex="04AD"/>
  <anchor x="295" y="0" name="bottom"/>
  <anchor x="179" y="0" name="bottomleft"/>
  <anchor x="295" y="238" name="center"/>
  <anchor x="295" y="547" name="top"/>
  <outline>
    <contour>
      <point x="179" y="0" type="line"/>
      <point x="404" y="0" type="line"/>
      <point x="404" y="419" type="line"/>
      <point x="355" y="371" type="line"/>
      <point x="571" y="371" type="line"/>
      <point x="571" y="547" type="line"/>
      <point x="12" y="547" type="line"/>
      <point x="12" y="371" type="line"/>
      <point x="228" y="371" type="line"/>
      <point x="179" y="419" type="line"/>
    </contour>
    <contour>
      <point x="269" y="-101" type="line"/>
      <point x="478" y="-101" type="line"/>
      <point x="478" y="177" type="line"/>
      <point x="179" y="177" type="line"/>
      <point x="179" y="0" type="line"/>
      <point x="318" y="0" type="line"/>
      <point x="269" y="48" type="line"/>
    </contour>
  </outline>
</glyph>
<glyph name="Chekhakassian-cy" format="2">
  <advance width="760"/>
  <unicode hex="04CB"/>
  <outline>
    <contour>
      <point x="341" y="252" type="curve" smooth="yes"/>
      <point x="389" y="252"/>
      <point x="439" y="262"/>
      <point x="499" y="284" type="curve"/>
      <point x="493" y="468" type="line"/>
      <point x="465" y="449"/>
      <point x="423" y="439"/>
      <point x="371" y="439" type="curve" smooth="yes"/>
      <point x="295" y="439"/>
      <point x="258" y="473"/>
      <point x="258" y="544" type="curve" smooth="yes"/>
      <point x="258" y="700" type="line"/>
      <point x="26" y="700" type="line"/>
      <point x="26" y="518" type="line" smooth="yes"/>
      <point x="26" y="344"/>
      <point x="135" y="252"/>
    </contour>
    <contour>
      <point x="336" y="-137" type="line"/>
      <point x="552" y="-137" type="line"/>
      <point x="552" y="51" type="line"/>
      <point x="541" y="0" type="line"/>
      <point x="698" y="0" type="line"/>
      <point x="698" y="183" type="line"/>
      <point x="336" y="183" type="line"/>
    </contour>
    <contour>
      <point x="466" y="0" type="line"/>
      <point x="698" y="0" type="line"/>
      <point x="698" y="700" type="line"/>
      <point x="466" y="700" type="line"/>
    </contour>
  </outline>
</glyph>
<glyph name="schwa-cy" format="2">
  <advance width="657"/>
  <unicode hex="04D9"/>
  <anchor x="334" y="0" name="bottom"/>
  <anchor x="108" y="547" name="ogonek"/>
  <anchor x="334" y="547" name="top"/>
  <outline>
    <contour>
      <point x="309" y="557" type="curve" smooth="yes"/>
      <point x="200" y="557"/>
      <point x="123" y="527"/>
      <point x="70" y="469" type="curve"/>
      <point x="188" y="350" type="line"/>
      <point x="224" y="377"/>
      <point x="252" y="390"/>
      <point x="302" y="390" type="curve" smooth="yes"/>
      <point x="376" y="390"/>
      <point x="419" y="351"/>
      <point x="419" y="280" type="curve" smooth="yes"/>
      <point x="419" y="246" type="line" smooth="yes"/>
      <point x="419" y="183"/>
      <point x="384" y="144"/>
      <point x="328" y="144" type="curve" smooth="yes"/>
      <point x="273" y="144"/>
      <point x="237" y="183"/>
      <point x="237" y="246" type="curve"/>
      <point x="152" y="217" type="line"/>
      <point x="453" y="217" type="line"/>
      <point x="453" y="326" type="line"/>
      <point x="32" y="326" type="line"/>
      <point x="31" y="310"/>
      <point x="29" y="289"/>
      <point x="29" y="273" type="curve" smooth="yes"/>
      <point x="29" y="88"/>
      <point x="168" y="-10"/>
      <point x="330" y="-10" type="curve" smooth="yes"/>
      <point x="507" y="-10"/>
      <point x="640" y="107"/>
      <point x="640" y="273" type="curve" smooth="yes"/>
      <point x="640" y="436"/>
      <point x="510" y="557"/>
    </contour>
  </outline>
</glyph>
<glyph name="tenge" format="2">
  <advance width="738"/>
  <unicode hex="20B8"/>
  <outline>
    <contour>
      <point x="251" y="0" type="line"/>
      <point x="487" y="0" type="line"/>
      <point x="487" y="436" type="line"/>
      <point x="692" y="436" type="line"/>
      <point x="692" y="549" type="line"/>
      <point x="46" y="549" type="line"/>
      <point x="46" y="436" type="line"/>
      <point x="251" y="436" type="line"/>
    </contour>
    <contour>
      <point x="46" y="587" type="line"/>
      <point x="692" y="587" type="line"/>
      <point x="692" y="700" type="line"/>
      <point x="46" y="700" type="line"/>
    </contour>
  </outline>
</glyph>
<glyph name="northEastArrow" format="2">
  <advance width="600"/>
  <unicode hex="2197"/>
  <outline>
    <contour>
      <point x="87" y="410" type="line"/>
      <point x="362" y="335" type="line"/>
      <point x="437" y="59" type="line"/>
      <point x="553" y="175" type="line"/>
      <point x="490" y="463" type="line"/>
      <point x="202" y="525" type="line"/>
    </contour>
    <contour>
      <point x="60" y="155" type="line"/>
      <point x="182" y="33" type="line"/>
      <point x="442" y="293" type="line"/>
      <point x="321" y="415" type="line"/>
    </contour>
  </outline>
</glyph>
<glyph name="product" format="2">
  <advance width="804"/>
  <unicode hex="220F"/>
  <outline>
    <contour>
      <point x="57" y="-194" type="line"/>
      <point x="293" y="-194" type="line"/>
      <point x="293" y="506" type="line"/>
      <point x="511" y="506" type="line"/>
      <point x="511" y="-194" type="line"/>
      <point x="747" y="-194" type="line"/>
      <point x="747" y="700" type="line"/>
      <point x="57" y="700" type="line"/>
    </contour>
  </outline>
</glyph>
<glyph name="greaterequal" format="2">
  <advance width="620"/>
  <unicode hex="2265"/>
  <outline>
    <contour>
      <point x="55" y="195" type="line"/>
      <point x="565" y="363" type="line"/>
      <point x="565" y="537" type="line"/>
      <point x="55" y="705" type="line"/>
      <point x="55" y="537" type="line"/>
      <point x="503" y="390" type="line"/>
      <point x="503" y="510" type="line"/>
      <point x="55" y="363" type="line"/>
    </contour>
    <contour>
      <point x="565" y="0" type="line"/>
      <point x="565" y="170" type="line"/>
      <point x="55" y="170" type="line"/>
      <point x="55" y="0" type="line"/>
    </contour>
  </outline>
</glyph>
<glyph name="rightWhiteTriangle" format="2">
  <advance width="600"/>
  <unicode hex="25B7"/>
  <outline>
    <contour>
      <point x="115" y="479" type="line"/>
      <point x="115" y="53" type="line"/>
      <point x="541" y="266" type="line"/>
    </contour>
    <contour>
      <point x="203" y="337" type="line"/>
      <point x="345" y="266" type="line"/>
      <point x="203" y="195" type="line"/>
    </contour>
  </outline>
</glyph>
<glyph name="leftanglebracket-math" format="2">
  <advance width="409"/>
  <unicode hex="27E8"/>
  <guideline x="46" y="-194" angle="0"/>
  <guideline x="77" y="742" angle="0"/>
  <outline>
    <contour>
      <point x="183" y="-194" type="line"/>
      <point x="392" y="-194" type="line"/>
      <point x="231" y="274" type="line"/>
      <point x="392" y="742" type="line"/>
      <point x="183" y="742" type="line"/>
      <point x="11" y="274" type="line"/>
    </contour>
  </outline>
</glyph>
<glyph name="A.ss01" format="2">
  <advance width="792"/>
  <anchor x="396" y="0" name="bottom"/>
  <anchor x="741" y="0" name="ogonek"/>
  <anchor x="396" y="700" name="top"/>
  <anchor x="51" y="700" name="topleft"/>
  <outline>
    <contour>
      <point x="51" y="0" type="line"/>
      <point x="283" y="0" type="line"/>
      <point x="283" y="393" type="line" smooth="yes"/>
      <point x="283" y="483"/>
      <point x="330" y="525"/>
      <point x="394" y="525" type="curve" smooth="yes"/>
      <point x="458" y="525"/>
      <point x="505" y="483"/>
      <point x="505" y="393" type="curve" smooth="yes"/>
      <point x="505" y="0" type="line"/>
      <point x="741" y="0" type="line"/>
      <point x="741" y="373" type="line" smooth="yes"/>
      <point x="741" y="592"/>
      <point x="600" y="716"/>
      <point x="396" y="716" type="curve" smooth="yes"/>
      <point x="192" y="716"/>
      <point x="51" y="592"/>
      <point x="51" y="373" type="curve" smooth="yes"/>
    </contour>
    <contour>
      <point x="199" y="141" type="line"/>
      <point x="589" y="141" type="line"/>
      <point x="589" y="319" type="line"/>
      <point x="199" y="319" type="line"/>
    </contour>
  </outline>
</glyph>
<glyph name="El-cy.loclBGR" format="2">
  <advance width="832"/>
  <outline>
    <contour>
      <point x="532" y="700" type="line"/>
      <point x="300" y="700" type="line"/>
      <point x="4" y="0" type="line"/>
      <point x="236" y="0" type="line"/>
      <point x="484" y="591" type="line"/>
      <point x="333" y="591" type="line"/>
      <point x="574" y="0" type="line"/>
      <point x="828" y="0" type="line"/>
    </contour>
  </outline>
</glyph>
<glyph name="Lje-cy.ss01" format="2">
  <advance width="1175"/>
  <outline>
    <contour>
      <point x="114" y="-15" type="curve" smooth="yes"/>
      <point x="307" y="-15"/>
      <point x="343" y="164"/>
      <point x="351" y="436" type="curve" smooth="yes"/>
      <point x="355" y="570" type="line"/>
      <point x="309" y="517" type="line"/>
      <point x="544" y="517" type="line"/>
      <point x="725" y="700" type="line"/>
      <point x="154" y="700" type="line"/>
      <point x="145" y="427" type="line" smooth="yes"/>
      <point x="140" y="291"/>
      <point x="130" y="184"/>
      <point x="52" y="184" type="curve" smooth="yes"/>
      <point x="44" y="184"/>
      <point x="35" y="185"/>
      <point x="26" y="187" type="curve"/>
      <point x="14" y="-2" type="line"/>
      <point x="51" y="-11"/>
      <point x="85" y="-15"/>
    </contour>
    <contour>
      <point x="814" y="-16" type="curve" smooth="yes"/>
      <point x="1034" y="-16"/>
      <point x="1155" y="78"/>
      <point x="1155" y="247" type="curve" smooth="yes"/>
      <point x="1155" y="408"/>
      <point x="1049" y="497"/>
      <point x="860" y="497" type="curve" smooth="yes"/>
      <point x="800" y="497"/>
      <point x="757" y="488"/>
      <point x="693" y="465" type="curve"/>
      <point x="699" y="298" type="line"/>
      <point x="722" y="315"/>
      <point x="769" y="327"/>
      <point x="814" y="327" type="curve" smooth="yes"/>
      <point x="883" y="327"/>
      <point x="918" y="299"/>
      <point x="918" y="242" type="curve" smooth="yes"/>
      <point x="918" y="189"/>
      <point x="885" y="159"/>
      <point x="826" y="159" type="curve" smooth="yes"/>
      <point x="760" y="159"/>
      <point x="724" y="196"/>
      <point x="724" y="261" type="curve" smooth="yes"/>
      <point x="724" y="700" type="line"/>
      <point x="492" y="700" type="line"/>
      <point x="492" y="255" type="line" smooth="yes"/>
      <point x="492" y="74"/>
      <point x="598" y="-16"/>
    </contour>
  </outline>
</glyph>
<glyph name="T.ss01" format="2">
  <advance width="684"/>
  <anchor x="342" y="0" name="bottom"/>
  <anchor x="224" y="0" name="bottomleft"/>
  <anchor x="341" y="300" name="center"/>
  <anchor x="347" y="701" name="top"/>
  <outline>
    <contour>
      <point x="60" y="455" type="line"/>
      <point x="144" y="502"/>
      <point x="231" y="528"/>
      <point x="342" y="528" type="curve" smooth="yes"/>
      <point x="453" y="528"/>
      <point x="540" y="502"/>
      <point x="624" y="455" type="curve"/>
      <point x="702" y="623" type="line"/>
      <point x="601" y="684"/>
      <point x="473" y="716"/>
      <point x="342" y="716" type="curve" smooth="yes"/>
      <point x="211" y="716"/>
      <point x="83" y="684"/>
      <point x="-18" y="623" type="curve"/>
    </contour>
    <contour>
      <point x="224" y="0" type="line"/>
      <point x="460" y="0" type="line"/>
      <point x="460" y="606" type="line"/>
      <point x="224" y="606" type="line"/>
    </contour>
  </outline>
</glyph>
<glyph name="T_h" format="2">
  <advance width="1292"/>
  <outline>
    <contour>
      <point x="209" y="0" type="line"/>
      <point x="445" y="0" type="line"/>
      <point x="445" y="517" type="line"/>
      <point x="680" y="517" type="line"/>
      <point x="680" y="700" type="line"/>
      <point x="4" y="700" type="line"/>
      <point x="4" y="517" type="line"/>
      <point x="209" y="517" type="line"/>
    </contour>
    <contour>
      <point x="1020" y="557" type="curve" smooth="yes"/>
      <point x="931" y="557"/>
      <point x="854" y="516"/>
      <point x="812" y="433" type="curve"/>
      <point x="866" y="387" type="line"/>
      <point x="866" y="700" type="line"/>
      <point x="640" y="700" type="line"/>
      <point x="640" y="0" type="line"/>
      <point x="866" y="0" type="line"/>
      <point x="866" y="257" type="line" smooth="yes"/>
      <point x="866" y="338"/>
      <point x="905" y="367"/>
      <point x="951" y="367" type="curve" smooth="yes"/>
      <point x="992" y="367"/>
      <point x="1018" y="341"/>
      <point x="1018" y="273" type="curve" smooth="yes"/>
      <point x="1018" y="0" type="line"/>
      <point x="1244" y="0" type="line"/>
      <point x="1244" y="312" type="line" smooth="yes"/>
      <point x="1244" y="484"/>
      <point x="1146" y="557"/>
    </contour>
  </outline>
</glyph>
<glyph name="e.sc" format="2">
  <advance width="588"/>
  <anchor x="300" y="0" name="bottom"/>
  <anchor x="561" y="0" name="ogonek"/>
  <anchor x="302" y="582" name="top"/>
  <anchor x="0" y="582" name="topleft"/>
  <outline>
    <contour>
      <point x="263" y="372" type="line"/>
      <point x="263" y="218" type="line"/>
      <point x="516" y="218" type="line"/>
      <point x="516" y="372" type="line"/>
    </contour>
    <contour>
      <point x="279" y="165" type="line"/>
      <point x="279" y="417" type="line"/>
      <point x="550" y="417" type="line"/>
      <point x="550" y="582" type="line"/>
      <point x="53" y="582" type="line"/>
      <point x="53" y="0" type="line"/>
      <point x="561" y="0" type="line"/>
      <point x="561" y="165" type="line"/>
    </contour>
  </outline>
</glyph>
<glyph name="f.sc.ss01" format="2">
  <advance width="549"/>
  <outline>
    <contour>
      <point x="48" y="0" type="line"/>
      <point x="278" y="0" type="line"/>
      <point x="278" y="330" type="line" smooth="yes"/>
      <point x="278" y="395"/>
      <point x="320" y="418"/>
      <point x="376" y="418" type="curve" smooth="yes"/>
      <point x="411" y="418"/>
      <point x="446" y="411"/>
      <point x="477" y="395" type="curve"/>
      <point x="543" y="563" type="line"/>
      <point x="500" y="584"/>
      <point x="436" y="597"/>
      <point x="364" y="597" type="curve" smooth="yes"/>
      <point x="166" y="597"/>
      <point x="48" y="496"/>
      <point x="48" y="322" type="curve" smooth="yes"/>
    </contour>
    <contour>
      <point x="189" y="174" type="line"/>
      <point x="472" y="174" type="line"/>
      <point x="472" y="339" type="line"/>
      <point x="189" y="339" type="line"/>
    </contour>
  </outline>
</glyph>
<glyph name="ge-cy.loclBGR" format="2">
  <advance width="564"/>
  <outline>
    <contour>
      <point x="298" y="-11" type="curve" smooth="yes"/>
      <point x="382" y="-11"/>
      <point x="471" y="8"/>
      <point x="545" y="44" type="curve"/>
      <point x="486" y="184" type="line"/>
      <point x="446" y="164"/>
      <point x="355" y="144"/>
      <point x="291" y="144" type="curve" smooth="yes"/>
      <point x="252" y="144"/>
      <point x="223" y="151"/>
      <point x="223" y="171" type="curve" smooth="yes"/>
      <point x="223" y="228"/>
      <point x="537" y="161"/>
      <point x="537" y="368" type="curve" smooth="yes"/>
      <point x="537" y="498"/>
      <point x="405" y="560"/>
      <point x="258" y="560" type="curve" smooth="yes"/>
      <point x="182" y="560"/>
      <point x="103" y="544"/>
      <point x="35" y="512" type="curve"/>
      <point x="94" y="371" type="line"/>
      <point x="130" y="387"/>
      <point x="204" y="402"/>
      <point x="259" y="402" type="curve" smooth="yes"/>
      <point x="298" y="402"/>
      <point x="328" y="395"/>
      <point x="328" y="375" type="curve" smooth="yes"/>
      <point x="328" y="316"/>
      <point x="15" y="382"/>
      <point x="15" y="177" type="curve" smooth="yes"/>
      <point x="15" y="49"/>
      <point x="148" y="-11"/>
    </contour>
  </outline>
</glyph>
<glyph name="h.sc" format="2">
  <advance width="710"/>
  <anchor x="355" y="0" name="bottom"/>
  <anchor x="355" y="483" name="center"/>
  <anchor x="355" y="582" name="top"/>
  <outline>
    <contour>
      <point x="53" y="0" type="line"/>
      <point x="283" y="0" type="line"/>
      <point x="283" y="204" type="line"/>
      <point x="427" y="204" type="line"/>
      <point x="427" y="0" type="line"/>
      <point x="657" y="0" type="line"/>
      <point x="657" y="582" type="line"/>
      <point x="427" y="582" type="line"/>
      <point x="427" y="386" type="line"/>
      <point x="283" y="386" type="line"/>
      <point x="283" y="582" type="line"/>
      <point x="53" y="582" type="line"/>
    </contour>
  </outline>
</glyph>
<glyph name="nine.tosf" format="2">
  <advance width="700"/>
  <outline>
    <contour>
      <point x="327" y="616" type="curve" smooth="yes"/>
      <point x="147" y="616"/>
      <point x="21" y="519"/>
      <point x="21" y="371" type="curve" smooth="yes"/>
      <point x="21" y="236"/>
      <point x="132" y="147"/>
      <point x="276" y="147" type="curve" smooth="yes"/>
      <point x="379" y="147"/>
      <point x="446" y="181"/>
      <point x="488" y="255" type="curve"/>
      <point x="437" y="298" type="line"/>
      <point x="437" y="278"/>
      <point x="437" y="259"/>
      <point x="437" y="231" type="curve" smooth="yes"/>
      <point x="437" y="129"/>
      <point x="366" y="67"/>
      <point x="258" y="67" type="curve" smooth="yes"/>
      <point x="207" y="67"/>
      <point x="157" y="80"/>
      <point x="121" y="107" type="curve"/>
      <point x="36" y="-62" type="line"/>
      <point x="86" y="-96"/>
      <point x="170" y="-116"/>
      <point x="259" y="-116" type="curve" smooth="yes"/>
      <point x="521" y="-116"/>
      <point x="671" y="59"/>
      <point x="671" y="272" type="curve" smooth="yes"/>
      <point x="671" y="486"/>
      <point x="540" y="616"/>
    </contour>
    <contour>
      <point x="336" y="455" type="curve" smooth="yes"/>
      <point x="382" y="455"/>
      <point x="418" y="428"/>
      <point x="418" y="382" type="curve" smooth="yes"/>
      <point x="418" y="336"/>
      <point x="380" y="308"/>
      <point x="336" y="308" type="curve" smooth="yes"/>
      <point x="292" y="308"/>
      <point x="256" y="336"/>
      <point x="256" y="382" type="curve" smooth="yes"/>
      <point x="256" y="428"/>
      <point x="292" y="455"/>
    </contour>
  </outline>
</glyph>
<glyph name="tildecomb.narrow" format="2">
  <anchor x="300" y="547" name="_top"/>
  <anchor x="300" y="750" name="top"/>
  <outline>
    <contour>
      <point x="373" y="597" type="curve" smooth="yes"/>
      <point x="449" y="597"/>
      <point x="489" y="655"/>
      <point x="489" y="767" type="curve"/>
      <point x="384" y="767" type="line"/>
      <point x="384" y="734"/>
      <point x="375" y="716"/>
      <point x="356" y="716" type="curve" smooth="yes"/>
      <point x="331" y="716"/>
      <point x="296" y="780"/>
      <point x="227" y="780" type="curve" smooth="yes"/>
      <point x="151" y="780"/>
      <point x="111" y="722"/>
      <point x="111" y="607" type="curve"/>
      <point x="216" y="607" type="line"/>
      <point x="216" y="642"/>
      <point x="225" y="661"/>
      <point x="244" y="661" type="curve" smooth="yes"/>
      <point x="269" y="661"/>
      <point x="304" y="597"/>
    </contour>
  </outline>
</glyph>
<glyph name="uogonek.sc" format="2">
  <advance width="693"/>
  <outline>
    <contour>
      <point x="419" y="582" type="line"/>
      <point x="419" y="261" type="line" smooth="yes"/>
      <point x="419" y="197"/>
      <point x="396" y="165"/>
      <point x="349" y="165" type="curve" smooth="yes"/>
      <point x="302" y="165"/>
      <point x="278" y="197"/>
      <point x="278" y="261" type="curve" smooth="yes"/>
      <point x="278" y="582" type="line"/>
      <point x="48" y="582" type="line"/>
      <point x="48" y="254" type="line" smooth="yes"/>
      <point x="48" y="92"/>
      <point x="158" y="-15"/>
      <point x="347" y="-15" type="curve" smooth="yes"/>
      <point x="369" y="-15"/>
      <point x="389" y="-14"/>
      <point x="413" y="-10" type="curve"/>
      <point x="385" y="49" type="line"/>
      <point x="279" y="16"/>
      <point x="218" y="-43"/>
      <point x="218" y="-117" type="curve" smooth="yes"/>
      <point x="218" y="-192"/>
      <point x="276" y="-240"/>
      <point x="376" y="-240" type="curve" smooth="yes"/>
      <point x="419" y="-240"/>
      <point x="465" y="-230"/>
      <point x="489" y="-217" type="curve"/>
      <point x="462" y="-124" type="line"/>
      <point x="447" y="-131"/>
      <point x="425" y="-138"/>
      <point x="403" y="-138" type="curve" smooth="yes"/>
      <point x="366" y="-138"/>
      <point x="350" y="-120"/>
      <point x="350" y="-97" type="curve" smooth="yes"/>
      <point x="350" y="-66"/>
      <point x="373" y="-32"/>
      <point x="473" y="3" type="curve" smooth="yes"/>
      <point x="576" y="39"/>
      <point x="645" y="124"/>
      <point x="645" y="254" type="curve" smooth="yes"/>
      <point x="645" y="582" type="line"/>
    </contour>
  </outline>
</glyph>
